# xmcd
#
# Track frame offsets: 
#        150
#        13494
#        26500
#        39710
#        52490
#        61955
#        75510
#        87543
#        100195
#        111526
#        125587
#        137722
#        150891
#        165708
#        179672
#        193087
#        205020
#        218152
#        229738
#        242484
#
# Disc length: 3408 seconds
#
# Revision: 4
# Processed by: cddbd v1.5.2PL0 Copyright (c) Steve Scherf et al.
# Submitted via: ExactAudioCopyFreeDBPlugin 1.0
#
DISCID=200d4e14
DTITLE=Various Artist - Blues Selection - Vol. 05
DYEAR=2006
DGENRE=Blues
TTITLE0=Robert Johnson - I Believe I'll Dust My Broom (1936)
TTITLE1=Kokomo Arnold - Fool Man Blues (1937)
TTITLE2=John Lee 'Sonny Boy' Williamson - I'm Tired Trucking My Blues 
TTITLE2=Away (1938)
TTITLE3=Jimmy Yancey - Yancey Stomp (1939)
TTITLE4=Huddie 'Leadbelly' Ledbetter - I'm Sorry Mama (1934)
TTITLE5=Big Bill Broonzy - Come Home Early (1937)
TTITLE6=Big Joe Williams - I Won't Be In Hard Luck No More (1937)
TTITLE7=Bukka White - Pinebluff, Arkansas (1937)
TTITLE8=Blind Boy Fuller and Sonny Terry - Mean And No Good Woman (1938)
TTITLE9=Sleepy John Estes - Brownsville Blues (1938)
TTITLE10=Sonny Terry - Harmonica Blues (1940)
TTITLE11=Blind Willie McTell - Warm It Up To Me (1933)
TTITLE12=Jimmy Yancey - Jimmy's Stuff (1939)
TTITLE13=Alice Moore - I'm Going Fishing Too (1936)
TTITLE14=Sam Theard and Oscar's Chicago Swingers - Try Some Of That (193
TTITLE14=6)
TTITLE15=Kokomo Arnold - Shake That Thing (1936)
TTITLE16=John Lee 'Sonny Boy' Williamson - Thinking My Blues Away (193
TTITLE16=9)
TTITLE17=Bukka White - Aberdeen Mississippi Blues (1940)
TTITLE18=Big Bill Broonzy - It's Your Time Now (1938)
TTITLE19=Jimmy Yancey - Steady Rock Blues (1939)
EXTD=
EXTT0=
EXTT1=
EXTT2=
EXTT3=
EXTT4=
EXTT5=
EXTT6=
EXTT7=
EXTT8=
EXTT9=
EXTT10=
EXTT11=
EXTT12=
EXTT13=
EXTT14=
EXTT15=
EXTT16=
EXTT17=
EXTT18=
EXTT19=
PLAYORDER=
